<svg xmlns="http://www.w3.org/2000/svg" viewBox="0 0 411.63 411.65"><defs><style>.cls-1{font-size:36px;fill:none;stroke:#fff;stroke-miterlimit:10;stroke-width:2px;font-family:GDisplay-Extended, G Display;}</style></defs><title>mahovo-pole@1x</title><g id="Layer_2" data-name="Layer 2"><g id="Layer_1-2" data-name="Layer 1"><text class="cls-1" transform="translate(208.38 30.83) rotate(5.21)">М</text><text class="cls-1" transform="translate(240.47 33.81) rotate(15.51)">А</text><text class="cls-1" transform="translate(268.77 41.67) rotate(25.32)">Х</text><text class="cls-1" transform="matrix(0.81, 0.58, -0.58, 0.81, 294.37, 53.52)">О</text><text class="cls-1" transform="matrix(0.69, 0.73, -0.73, 0.69, 320.76, 72.34)">В</text><text class="cls-1" transform="matrix(0.54, 0.84, -0.84, 0.54, 342.69, 95.26)">О</text><text class="cls-1" transform="matrix(0.4, 0.92, -0.92, 0.4, 360.17, 122.63)"> </text><text class="cls-1" transform="matrix(0.24, 0.97, -0.97, 0.24, 370.63, 145.83)">П</text><text class="cls-1" transform="translate(378.58 177.35) rotate(86.26)">О</text><text class="cls-1" transform="translate(380.74 208.36) rotate(95.96)">Л</text><text class="cls-1" transform="translate(377.34 239.31) rotate(105.33)">Е</text><text class="cls-1" transform="translate(370.51 264.28) rotate(113.83)"> </text><text class="cls-1" transform="translate(360.54 287.66) rotate(123.31)">М</text><text class="cls-1" transform="matrix(-0.7, 0.72, -0.72, -0.7, 342.96, 314.65)">а</text><text class="cls-1" transform="translate(319.42 338.78) rotate(144.39)">х</text><text class="cls-1" transform="translate(295.47 356.16) rotate(154.57)">о</text><text class="cls-1" transform="translate(266.26 370.19) rotate(165.47)">в</text><text class="cls-1" transform="matrix(-1, 0.06, -0.06, -1, 233.67, 378.62)">о</text><text class="cls-1" transform="translate(201.21 380.47) rotate(-174.3)"> </text><text class="cls-1" transform="matrix(-0.96, -0.26, 0.26, -0.96, 175.88, 378.29)">П</text><text class="cls-1" transform="matrix(-0.9, -0.44, 0.44, -0.9, 144.51, 369.8)">О</text><text class="cls-1" transform="matrix(-0.81, -0.59, 0.59, -0.81, 116.56, 356.32)">Л</text><text class="cls-1" transform="matrix(-0.7, -0.71, 0.71, -0.7, 91.43, 337.9)">Е</text><text class="cls-1" transform="translate(73.17 319.53) rotate(-126.39)"> </text><text class="cls-1" transform="translate(57.83 299.28) rotate(-116.94)">М</text><text class="cls-1" transform="translate(43.29 270.5) rotate(-106.77)">А</text><text class="cls-1" transform="translate(34.82 242.37) rotate(-97.27)">Х</text><text class="cls-1" transform="translate(31.02 214.36) rotate(-87.42)">О</text><text class="cls-1" transform="translate(32.41 181.97) rotate(-76.8)">В</text><text class="cls-1" transform="translate(39.55 151.04) rotate(-66.32)">О</text><text class="cls-1" transform="translate(52.83 121.38) rotate(-56.8)"> </text><text class="cls-1" transform="translate(66.46 99.94) rotate(-47.33)">П</text><text class="cls-1" transform="translate(88.46 75.99) rotate(-36.74)">О</text><text class="cls-1" transform="translate(113.27 57.33) rotate(-26.78)">Л</text><text class="cls-1" transform="translate(141.16 43.45) rotate(-17.38)">Е</text></g></g></svg>